<svg id="Layer_1" data-name="Layer 1" xmlns="http://www.w3.org/2000/svg" viewBox="0 0 212.35 175.4">
  <defs>
    <style>
      .cls-1, .cls-3, .cls-4 {
        fill: none;
      }

      .cls-1, .cls-4 {
        stroke: #fff;
      }

      .cls-1, .cls-3 {
        stroke-linecap: round;
        stroke-miterlimit: 10;
      }

      .cls-1 {
        stroke-width: 3.74px;
      }

      .cls-2 {
        font-size: 33.46px;
        fill: #f4c70b;
        font-family: Helvetica-Bold, Helvetica;
        font-weight: 700;
        letter-spacing: 0.2em;
      }

      .cls-3 {
        stroke: #f4c70b;
        stroke-width: 5.05px;
      }

      .cls-4 {
        stroke-linecap: square;
        stroke-linejoin: bevel;
        stroke-width: 6.57px;
      }
    </style>
  </defs>
  <path class="cls-1" d="M602.54,327" transform="translate(-299.72 -225.62)"/>
  <g>
    <text class="cls-2" transform="translate(107.48 157.7) scale(1 1.1)">Juna</text>
    <path class="cls-3" d="M440.87,324s3.52-.25,8,8-5.53,14.57-17.09,17.84-11.3,1.5-11.3,10" transform="translate(-299.72 -225.62)"/>
    <path class="cls-4" d="M304.1,362.1s13.18-6.28,19.21-8.34,12.57-1.2,21.86-.2,26.89-2,30.18-2.84,18.29-3.85,21.3-4.51,18.36-.48,21.48-.76,3.29-.66,6-2.36,6-6.3,7.06-6.88,10.55-4.23,11.5-6.58-3.2-2.63-3.2-2.63c-1.7-2-6.32-3.41-10.28-3.6s-9,1.52-11.3,2.64a10.14,10.14,0,0,1-6,.86c-1.8-.2-10.36-.58-14.14-.49s-5.49-1.75-5.49-1.75c-1.51-.88-1.39-6.79-1.51-10.31s6.28-6.65,7.28-7a25.76,25.76,0,0,1,6.67-1.14c2.26,0,14.19-.12,16.7-1a16,16,0,0,1,5.16-.75c1.12-.12,3.38,3.38,3.38,3.38l.26,2.89a14,14,0,0,0,6.16,9.55c1.88,3.77,4,2.26,5.39,1.39s3.66-7.54,4.28-12.32-1.76-7.41-1.76-8.28-5.65-8.8-7.66-12.2a10.53,10.53,0,0,0-5.78-4.89,37.42,37.42,0,0,0-7-.5,36.63,36.63,0,0,1-5.65-.51c1.51-1.12,7.16-2.76,7.16-2.76,5.15,1.5,18.53,2.45,18.53,2.45,2.39,2.13,10,3.39,10,3.39,8.16.44,9.93-2.33,10.31-2.26a7.09,7.09,0,0,0,3.26-.44c1.45-.57,1.89-1.89.75-3.27s-6.84-4.9-7.72-5.34-2.14-.75-3-1.06-5.46-2.26-7.79-3.4-7.54-2.7-9.73-3.52-15.33-4.95-17-5.08-7.35.06-8.17.13-3.2.31-3.83.37a3.17,3.17,0,0,1-1.25-.18,9.3,9.3,0,0,0,1.63-1.7c6.65.51,18.85-1.64,18.85-1.64a19,19,0,0,0,6.84,1.52C451,259.9,452.08,256,452.08,256c.44-.07,2.51.69,4.33-.89s-1.72-3-1.72-3c-3.4-2.26-11.69-3.58-12.81-3.77s-15.09-2.45-16.12-2.64-18.28-.84-19.5-.93a10,10,0,0,0-3,.46l-2.65.71c10.46-8.34,8.11-13.85,8.11-13.85a5.55,5.55,0,0,0,1.08-2.26c.28-1.14-1.05-.87-1.05-.87-1.13.13-6.91,1.26-9.43,3.77s-2.38,2.13-4,3-4.41,3.78-5.41,4.9-4.65,4-5.9,5.41-5.16,5-7.92,7.66-8.16,7.53-10.3,9.3-8,5.27-9.17,6.28-8.85,7.6-11.3,9.68-9.42,7.16-21.48,16c-11,8.07-18.3,7.22-19.52,7" transform="translate(-299.72 -225.62)"/>
  </g>
</svg>
